<svg width="36" height="35" viewBox="0 0 36 35" fill="none" xmlns="http://www.w3.org/2000/svg">
<path d="M17.7527 0.0222473C21.3994 0.0222473 24.7794 1.13406 27.5811 3.04639C26.6472 3.80243 25.6688 4.64741 24.6904 5.58133C22.6002 4.38057 20.2431 3.71348 17.7527 3.71348C13.928 3.71348 10.4592 5.27002 7.96868 7.76049C5.47821 10.251 3.92167 13.7198 3.92167 17.5445C3.92167 21.3691 5.47821 24.838 7.96868 27.3285C10.4592 29.8189 13.928 31.3755 17.7527 31.3755C21.5773 31.3755 25.0462 29.8189 27.5367 27.3285C30.0271 24.838 31.5837 21.3691 31.5837 17.5445C31.5837 14.8761 30.8276 12.3412 29.4935 10.2065C30.205 9.13915 31.0055 8.0718 31.806 7.04893C33.9852 9.98413 35.2749 13.5864 35.2749 17.5C35.2749 22.3475 33.3181 26.7059 30.1606 29.8634C27.003 33.021 22.6002 34.9778 17.7971 34.9778C12.9496 34.9778 8.5913 33.021 5.43374 29.8634C2.18724 26.7503 0.230438 22.3475 0.230438 17.5445C0.230438 12.697 2.18724 8.33864 5.3448 5.18108C8.54683 1.97905 12.9052 0.0222473 17.7527 0.0222473ZM27.4922 7.76049C27.3588 7.62708 27.1809 7.44919 27.0475 7.31577C27.848 6.55973 28.693 5.84817 29.449 5.27002C28.7819 6.07053 28.1593 6.91551 27.4922 7.76049C27.5367 7.76049 27.5367 7.80497 27.4922 7.76049Z" fill="#FF3737"></path>
<path fill-rule="evenodd" clip-rule="evenodd" d="M8.72472 13.7643C9.48076 15.143 13.3054 23.148 13.9725 24.8825C14.5951 26.6169 17.0411 25.9943 18.7311 25.2827C20.51 24.5712 25.8467 9.85071 34.2965 2.11246C39.4998 -2.60164 26.0246 2.55719 18.3308 15.899C18.3308 15.899 16.3295 10.0286 14.3283 10.0731C12.327 10.162 7.87974 11.852 8.72472 13.7643Z" fill="#FF3737"></path>
</svg>
